<?xml version="1.0" encoding="utf-8"?>
<!-- Generator: Adobe Illustrator 23.0.1, SVG Export Plug-In . SVG Version: 6.00 Build 0)  -->
<svg version="1.1" id="Layer_1" xmlns="http://www.w3.org/2000/svg" xmlns:xlink="http://www.w3.org/1999/xlink" x="0px" y="0px"
	 viewBox="0 0 90 55" style="enable-background:new 0 0 90 55;" xml:space="preserve">
<style type="text/css">
	.st0{fill:#EF3C23;}
</style>
<g>
	<path class="st0" d="M72.6,48.2H62.1l-0.4-0.9c-0.1-0.2-2.5-5.7-11.9-5.7S37.9,47,37.8,47.3l-0.4,0.9l-1,0h-9.5v-8.5l0.9-0.4
		c4.8-2.1,11.8-6.3,11.8-8.8c0-2.4-0.5-4-7.9-4C7.6,26.5,3.1,13,3,12.5l-0.6-1.9h32.5v-3h52.3v6h-1.8V17l-1.5,0
		c-10,0.2-17.3,2.6-21.2,6.7c-3.1,3.3-2.9,6.5-2.9,6.7l0,0.1c0,2.5,7.1,6.7,11.8,8.8l0.9,0.4V48.2z M64,45.2h5.6v-3.5
		c-3.5-1.6-12.7-6.3-12.7-11.1c0-0.6,0-4.7,3.7-8.7c4.3-4.7,11.7-7.3,21.9-7.7v-3.6H37.9v3H6.8c2.1,3.4,8.4,10,24.9,10
		c5.3,0,10.9,0.5,10.9,7c0,4.8-9.3,9.6-12.7,11.2v3.5h5.6c1.2-2,5-6.7,14.2-6.7S62.7,43.2,64,45.2z"/>
</g>
</svg>
